<svg width="879" height="343" viewBox="0 0 879 343" fill="none" xmlns="http://www.w3.org/2000/svg">
<path d="M54.5 291.5H124.5C149.5 291.5 162 279.5 162 255.5V224.5C162 200.5 148.833 188.5 122.5 188.5H54.5C50.8333 188.5 49 190.166 49 193.5V286.5C49 289.833 50.8333 291.5 54.5 291.5ZM54.5 148.5H119.5C144.833 148.5 157.5 136.333 157.5 112V88.9997C157.5 64.9998 145.167 52.9998 120.5 52.9998H54.5C50.8333 52.9998 49 54.6664 49 57.9998V143.5C49 146.833 50.8333 148.5 54.5 148.5ZM0.5 324.5V19.9997C0.5 14.3331 3.33333 11.4998 9 11.4998H127.5C152.167 11.4998 171.333 18.1664 185 31.4997C198.667 44.8331 205.5 63.6664 205.5 87.9998V112.5C205.5 141.5 191.833 160.166 164.5 168.5C177.5 170.166 188.167 175.833 196.5 185.5C205.167 195.166 209.5 208.166 209.5 224.5V256.5C209.5 280.833 202.667 299.666 189 313C175.333 326.333 156.333 333 132 333H9C3.33333 333 0.5 330.166 0.5 324.5Z" fill="black"/>
<path d="M686 333H649C646.333 333 644.333 332.166 643 330.5C642 328.833 642.167 326.666 643.5 324L726 166.5L647 20.4998C645.667 18.1664 645.5 16.1664 646.5 14.4997C647.833 12.4998 649.833 11.4998 652.5 11.4998H688C694.667 11.4998 699.333 14.3331 702 19.9997L759.5 136H761.5L819 19.9997C822 14.3331 826.333 11.4998 832 11.4998H869C871.667 11.4998 873.5 12.4998 874.5 14.4997C875.833 16.4997 876 18.6664 875 20.9998L795 166.5L877.5 323.5C878.833 326.166 879 328.5 878 330.5C877 332.166 875 333 872 333H834.5C829.167 333 825.333 330.333 823 325L761.5 203H759.5L698 325C695.667 330.333 691.667 333 686 333Z" fill="black"/>
<path d="M262 97.7213C262 85.2788 269.212 73.9643 280.492 68.712L420.992 3.28956C429.556 -0.698086 439.444 -0.698083 448.008 3.28957L588.508 68.712C599.788 73.9643 607 85.2787 607 97.7213V244.444C607 256.835 599.846 268.113 588.637 273.393L448.137 339.576C439.501 343.644 429.499 343.644 420.863 339.576L280.363 273.393C269.154 268.113 262 256.835 262 244.444V97.7213Z" fill="black"/>
<path d="M262 97.7213C262 85.2788 269.212 73.9643 280.492 68.712L420.992 3.28956C429.556 -0.698086 439.444 -0.698083 448.008 3.28957L588.508 68.712C599.788 73.9643 607 85.2787 607 97.7213V244.444C607 256.835 599.846 268.113 588.637 273.393L448.137 339.576C439.501 343.644 429.499 343.644 420.863 339.576L280.363 273.393C269.154 268.113 262 256.835 262 244.444V97.7213Z" fill="url(#paint0_diamond_124_100)"/>
<defs>
<radialGradient id="paint0_diamond_124_100" cx="0" cy="0" r="1" gradientUnits="userSpaceOnUse" gradientTransform="translate(440.427 72.8966) rotate(89.5089) scale(109.183 250.096)">
<stop stop-color="#7E7E7E"/>
<stop offset="1"/>
</radialGradient>
</defs>
</svg>
