<svg width="40" height="40" viewBox="0 0 40 40" fill="none" xmlns="http://www.w3.org/2000/svg">
<g clip-path="url(#clip0_396_1323)">
<path d="M20 3.3333C22.2109 3.34056 24.3983 3.7862 26.4358 4.64445C28.4733 5.5027 30.3203 6.7565 31.87 8.33331H26.6667C26.2247 8.33331 25.8007 8.5089 25.4882 8.82146C25.1756 9.13402 25 9.55795 25 9.99997C25 10.442 25.1756 10.8659 25.4882 11.1785C25.8007 11.491 26.2247 11.6666 26.6667 11.6666H33.5717C34.3924 11.6662 35.1794 11.34 35.7597 10.7596C36.34 10.1793 36.6662 9.39235 36.6667 8.57164V1.66664C36.6667 1.22461 36.4911 0.800688 36.1785 0.488127C35.866 0.175566 35.442 -2.83408e-05 35 -2.83408e-05C34.558 -2.83408e-05 34.1341 0.175566 33.8215 0.488127C33.5089 0.800688 33.3333 1.22461 33.3333 1.66664V5.12997C30.5786 2.64906 27.1877 0.983988 23.5402 0.32122C19.8927 -0.341548 16.1327 0.0241582 12.6813 1.37738C9.22992 2.73061 6.22337 5.01792 3.99836 7.98318C1.77336 10.9484 0.417748 14.4745 0.0833453 18.1666C0.0618176 18.3987 0.0888716 18.6328 0.162784 18.8538C0.236695 19.0749 0.355845 19.2781 0.512639 19.4506C0.669434 19.6231 0.860436 19.761 1.07348 19.8556C1.28652 19.9502 1.51692 19.9993 1.75001 20C2.15766 20.0052 2.55257 19.858 2.85744 19.5874C3.16232 19.3167 3.3552 18.942 3.39835 18.5366C3.76937 14.3879 5.6783 10.5278 8.75015 7.7147C11.822 4.90159 15.8347 3.33879 20 3.3333Z" fill="black"/>
<path d="M38.2513 20.0001C37.8437 19.9949 37.4488 20.1421 37.1439 20.4127C36.839 20.6834 36.6461 21.0581 36.603 21.4635C36.3275 24.6355 35.1479 27.662 33.2041 30.1838C31.2603 32.7056 28.6339 34.617 25.6366 35.6911C22.6392 36.7652 19.3967 36.9569 16.2936 36.2436C13.1905 35.5303 10.3572 33.9419 8.12967 31.6668H13.333C13.775 31.6668 14.199 31.4912 14.5115 31.1786C14.8241 30.8661 14.9997 30.4422 14.9997 30.0001C14.9997 29.5581 14.8241 29.1342 14.5115 28.8216C14.199 28.5091 13.775 28.3335 13.333 28.3335H6.42801C6.02151 28.3332 5.61895 28.4132 5.24334 28.5686C4.86774 28.7241 4.52647 28.952 4.23902 29.2395C3.95158 29.5269 3.72362 29.8682 3.56815 30.2438C3.41269 30.6194 3.33279 31.022 3.33301 31.4285V38.3335C3.33301 38.7755 3.5086 39.1994 3.82116 39.512C4.13372 39.8245 4.55765 40.0001 4.99967 40.0001C5.4417 40.0001 5.86563 39.8245 6.17819 39.512C6.49075 39.1994 6.66634 38.7755 6.66634 38.3335V34.8701C9.42106 37.351 12.812 39.0161 16.4595 39.6789C20.107 40.3417 23.867 39.9759 27.3184 38.6227C30.7698 37.2695 33.7763 34.9822 36.0013 32.0169C38.2263 29.0517 39.5819 25.5256 39.9163 21.8335C39.9379 21.6014 39.9108 21.3673 39.8369 21.1463C39.763 20.9252 39.6438 20.722 39.487 20.5495C39.3302 20.377 39.1393 20.2391 38.9262 20.1445C38.7132 20.0499 38.4844 20.0008 38.2513 20.0001Z" fill="black"/>
</g>
<defs>
<clipPath id="clip0_396_1323">
<rect width="40" height="40" fill="white"/>
</clipPath>
</defs>
</svg>
