<svg width="40" height="40" viewBox="0 0 40 40" fill="none" xmlns="http://www.w3.org/2000/svg">
<g clip-path="url(#clip0_396_1316)">
<path d="M28.3333 0C27.8913 0 27.4674 0.175595 27.1548 0.488155C26.8423 0.800716 26.6667 1.22464 26.6667 1.66667C26.6667 6.58167 22.3617 8.33333 18.3333 8.33333H6.66667C4.89856 8.33333 3.20286 9.03571 1.95262 10.286C0.702379 11.5362 0 13.2319 0 15L0 18.3333C0.00364027 19.3312 0.232436 20.3154 0.669338 21.2126C1.10624 22.1098 1.73998 22.8968 2.52333 23.515L8.47667 36.8017C8.90006 37.7535 9.59029 38.5622 10.4638 39.1298C11.3373 39.6974 12.3566 39.9997 13.3983 40C14.2272 39.9995 15.0427 39.7916 15.7708 39.3955C16.4988 38.9993 17.1162 38.4273 17.5667 37.7316C18.0173 37.0359 18.2867 36.2386 18.3504 35.4122C18.4142 34.5858 18.2702 33.7566 17.9317 33L14.265 25H18.3333C22.3617 25 26.6667 26.7517 26.6667 31.6667C26.6667 32.1087 26.8423 32.5326 27.1548 32.8452C27.4674 33.1577 27.8913 33.3333 28.3333 33.3333C28.7754 33.3333 29.1993 33.1577 29.5119 32.8452C29.8244 32.5326 30 32.1087 30 31.6667V1.66667C30 1.22464 29.8244 0.800716 29.5119 0.488155C29.1993 0.175595 28.7754 0 28.3333 0ZM14.895 34.365C15.0054 34.6143 15.0518 34.8872 15.0301 35.159C15.0083 35.4308 14.9191 35.6929 14.7705 35.9214C14.6218 36.15 14.4185 36.3379 14.1789 36.468C13.9393 36.5982 13.671 36.6664 13.3983 36.6667C13.0007 36.6664 12.6116 36.5506 12.2785 36.3335C11.9453 36.1163 11.6824 35.8071 11.5217 35.4433L6.84167 25H10.5983L14.895 34.365ZM26.6667 24.3333C24.2855 22.4986 21.3373 21.5552 18.3333 21.6667H6.66667C5.78261 21.6667 4.93477 21.3155 4.30964 20.6904C3.68452 20.0652 3.33333 19.2174 3.33333 18.3333V15C3.33333 14.1159 3.68452 13.2681 4.30964 12.643C4.93477 12.0179 5.78261 11.6667 6.66667 11.6667H18.3333C21.3363 11.7805 24.2844 10.84 26.6667 9.00833V24.3333ZM39.8333 25.7533C39.7356 25.9493 39.6002 26.1241 39.4348 26.2676C39.2695 26.4112 39.0775 26.5208 38.8697 26.5902C38.662 26.6595 38.4427 26.6872 38.2242 26.6718C38.0058 26.6563 37.7925 26.5979 37.5967 26.5L34.2633 24.8333C33.8677 24.6357 33.5668 24.2891 33.4268 23.8696C33.2867 23.4502 33.3191 22.9923 33.5167 22.5967C33.7143 22.2011 34.0609 21.9001 34.4804 21.7601C34.8998 21.6201 35.3577 21.6524 35.7533 21.85L39.0867 23.5167C39.4803 23.7141 39.7797 24.0593 39.9196 24.4768C40.0595 24.8944 40.0285 25.3503 39.8333 25.745V25.7533ZM33.5167 10.7533C33.4187 10.5575 33.3604 10.3442 33.3449 10.1258C33.3294 9.90733 33.3572 9.68799 33.4265 9.48027C33.4958 9.27255 33.6054 9.08053 33.749 8.91519C33.8926 8.74985 34.0674 8.61443 34.2633 8.51667L37.5967 6.85C37.9923 6.65241 38.4502 6.62008 38.8696 6.7601C39.2891 6.90013 39.6357 7.20105 39.8333 7.59667C40.0309 7.99228 40.0633 8.45018 39.9232 8.86964C39.7832 9.2891 39.4823 9.63575 39.0867 9.83333L35.7533 11.5C35.5575 11.5979 35.3442 11.6563 35.1258 11.6718C34.9073 11.6872 34.688 11.6595 34.4803 11.5902C34.2726 11.5208 34.0805 11.4112 33.9152 11.2676C33.7499 11.1241 33.6144 10.9493 33.5167 10.7533ZM33.3333 16.6667C33.3333 16.2246 33.5089 15.8007 33.8215 15.4882C34.1341 15.1756 34.558 15 35 15H38.3333C38.7754 15 39.1993 15.1756 39.5119 15.4882C39.8244 15.8007 40 16.2246 40 16.6667C40 17.1087 39.8244 17.5326 39.5119 17.8452C39.1993 18.1577 38.7754 18.3333 38.3333 18.3333H35C34.558 18.3333 34.1341 18.1577 33.8215 17.8452C33.5089 17.5326 33.3333 17.1087 33.3333 16.6667Z" fill="black"/>
</g>
<defs>
<clipPath id="clip0_396_1316">
<rect width="40" height="40" fill="white"/>
</clipPath>
</defs>
</svg>
