<svg width="40" height="40" viewBox="0 0 40 40" fill="none" xmlns="http://www.w3.org/2000/svg">
<g clip-path="url(#clip0_396_1469)">
<path d="M39.727 14.6564C39.3861 13.5713 38.705 12.6246 37.7844 11.9565C36.8638 11.2884 35.7527 10.9342 34.6153 10.9464H27.3337L25.122 4.05309C24.7742 2.96802 24.0908 2.02145 23.1703 1.34987C22.2498 0.678289 21.1398 0.316406 20.0003 0.316406C18.8609 0.316406 17.7509 0.678289 16.8304 1.34987C15.9099 2.02145 15.2265 2.96802 14.8787 4.05309L12.667 10.9464H5.38532C4.25156 10.948 3.14731 11.3079 2.23029 11.9746C1.31327 12.6413 0.630389 13.5807 0.27919 14.6587C-0.0720084 15.7367 -0.0735628 16.8981 0.274749 17.9771C0.623061 19.056 1.30342 19.9973 2.21865 20.6664L8.14532 24.9998L5.89199 31.9781C5.52784 33.0604 5.52323 34.2314 5.87884 35.3166C6.23445 36.4017 6.93123 37.3429 7.86532 37.9998C8.78341 38.6777 9.89598 39.0409 11.0372 39.0352C12.1785 39.0295 13.2874 38.6552 14.1987 37.9681L20.0003 33.6981L25.8037 37.9631C26.7201 38.6372 27.8266 39.0033 28.9643 39.0089C30.1019 39.0144 31.212 38.6591 32.1349 37.9939C33.0579 37.3288 33.7462 36.3882 34.1008 35.3072C34.4554 34.2263 34.4582 33.0607 34.1087 31.9781L31.8553 24.9998L37.7887 20.6664C38.7143 20.0057 39.4027 19.0644 39.7518 17.982C40.1009 16.8996 40.0922 15.7335 39.727 14.6564ZM35.822 17.9748L28.9153 23.0231C28.6316 23.23 28.4206 23.5213 28.3122 23.8553C28.2039 24.1893 28.2038 24.549 28.312 24.8831L30.937 32.9998C31.0698 33.4114 31.0687 33.8546 30.9337 34.2656C30.7988 34.6766 30.537 35.0342 30.186 35.2871C29.835 35.5399 29.4129 35.6749 28.9803 35.6727C28.5478 35.6705 28.127 35.5312 27.7787 35.2748L20.987 30.2748C20.7009 30.0646 20.3553 29.9513 20.0003 29.9513C19.6454 29.9513 19.2997 30.0646 19.0137 30.2748L12.222 35.2748C11.8738 35.5346 11.4519 35.6768 11.0174 35.6808C10.583 35.6847 10.1586 35.5502 9.8057 35.2967C9.45285 35.0432 9.1899 34.6839 9.05498 34.2709C8.92006 33.8579 8.92018 33.4127 9.05532 32.9998L11.6887 24.8831C11.7968 24.549 11.7968 24.1893 11.6884 23.8553C11.5801 23.5213 11.369 23.23 11.0853 23.0231L4.17865 17.9748C3.83083 17.7201 3.57238 17.362 3.44022 16.9517C3.30807 16.5413 3.30897 16.0997 3.4428 15.6899C3.57662 15.2801 3.83653 14.9231 4.18539 14.6698C4.53425 14.4166 4.95423 14.2801 5.38532 14.2798H13.8853C14.2382 14.2797 14.5819 14.1677 14.8671 13.9599C15.1522 13.752 15.364 13.459 15.472 13.1231L18.0553 5.07143C18.1879 4.6594 18.4478 4.30008 18.7977 4.04518C19.1475 3.79027 19.5692 3.65294 20.002 3.65294C20.4348 3.65294 20.8565 3.79027 21.2063 4.04518C21.5561 4.30008 21.816 4.6594 21.9487 5.07143L24.532 13.1231C24.64 13.459 24.8518 13.752 25.1369 13.9599C25.422 14.1677 25.7658 14.2797 26.1187 14.2798H34.6187C35.0497 14.2801 35.4697 14.4166 35.8186 14.6698C36.1674 14.9231 36.4274 15.2801 36.5612 15.6899C36.695 16.0997 36.6959 16.5413 36.5638 16.9517C36.4316 17.362 36.1731 17.7201 35.8253 17.9748H35.822Z" fill="black"/>
</g>
<defs>
<clipPath id="clip0_396_1469">
<rect width="40" height="40" fill="white"/>
</clipPath>
</defs>
</svg>
